<svg width="28" height="28" viewBox="0 0 28 28" fill="none" xmlns="http://www.w3.org/2000/svg">
<path d="M8.23107 6.78827V1.01904V6.78827ZM19.7695 6.78827V1.01904V6.78827ZM6.78876 12.5575H21.2118H6.78876ZM3.90415 26.9806H24.0965C24.8615 26.9806 25.5952 26.6767 26.1362 26.1357C26.6772 25.5947 26.9811 24.861 26.9811 24.096V6.78827C26.9811 6.02323 26.6772 5.28951 26.1362 4.74854C25.5952 4.20757 24.8615 3.90366 24.0965 3.90366H3.90415C3.1391 3.90366 2.40539 4.20757 1.86442 4.74854C1.32345 5.28951 1.01953 6.02323 1.01953 6.78827V24.096C1.01953 24.861 1.32345 25.5947 1.86442 26.1357C2.40539 26.6767 3.1391 26.9806 3.90415 26.9806Z" stroke="#00AEEF" stroke-width="2" stroke-linecap="round" stroke-linejoin="round"/>
</svg>
