<svg width="30" height="30" viewBox="0 0 30 30" fill="none" xmlns="http://www.w3.org/2000/svg">
<path d="M22.5003 20.168C22.5003 20.8906 22.1106 21.5569 21.4808 21.9112L15.9808 25.0049C15.372 25.3474 14.6286 25.3474 14.0198 25.0049L8.51976 21.9112C7.89 21.5569 7.50028 20.8906 7.50028 20.168V17.5109C7.50028 17.1218 7.28933 16.7632 6.94919 16.5743C6.23505 16.1775 5.35742 16.6939 5.35742 17.5109V21.4212C5.35742 22.1437 5.74715 22.8101 6.3769 23.1643L14.0198 27.4634C14.6286 27.8059 15.372 27.8059 15.9808 27.4634L23.6237 23.1643C24.2534 22.8101 24.6431 22.1437 24.6431 21.4212V17.5109C24.6431 16.6939 23.7655 16.1775 23.0514 16.5743C22.7112 16.7632 22.5003 17.1218 22.5003 17.5109V20.168Z" fill="#00AEEF"/>
<path d="M15.9206 1.4134C15.3434 1.11408 14.6566 1.11408 14.0794 1.4134L0.837805 8.27938C0.323092 8.54627 0 9.07775 0 9.65754C0 10.2213 0.305662 10.7408 0.798505 11.0146L14.0287 18.3645C14.6328 18.7001 15.3672 18.7001 15.9713 18.3645L26.3715 12.5868C27.038 12.2165 27.8571 12.6985 27.8571 13.461V16.6786C27.8571 17.2309 28.3049 17.6786 28.8571 17.6786H29C29.5523 17.6786 30 17.2309 30 16.6786V9.92964C30 9.18268 29.5838 8.49797 28.9206 8.15413L15.9206 1.4134ZM25.7143 10.5006L23.5714 11.691L15.9713 15.9135C15.3673 16.2492 14.6327 16.2492 14.0287 15.9135L6.42857 11.691L4.28571 10.5006C3.64979 10.1473 3.66301 9.22826 4.30883 8.89339L14.0794 3.82719C14.6566 3.52787 15.3434 3.52787 15.9206 3.82719L25.6912 8.89339C26.337 9.22826 26.3502 10.1473 25.7143 10.5006Z" fill="#00AEEF"/>
</svg>
