<svg width="30" height="30" viewBox="0 0 30 30" fill="none" xmlns="http://www.w3.org/2000/svg">
<path d="M30.0001 28C30.0001 29.1046 29.1047 30 28.0001 30H23.4287C22.3241 30 21.4287 29.1046 21.4287 28V2C21.4287 0.89543 22.3241 0 23.4287 0H28.0001C29.1047 0 30.0001 0.895431 30.0001 2V28ZM23.5716 25.6923C23.5716 26.7969 24.467 27.6923 25.5716 27.6923H25.8573C26.9619 27.6923 27.8573 26.7969 27.8573 25.6923V4.30769C27.8573 3.20312 26.9619 2.30769 25.8573 2.30769H25.5716C24.467 2.30769 23.5716 3.20312 23.5716 4.30769V25.6923Z" fill="#00AEEF"/>
<path d="M19.2853 28.0002C19.2853 29.1048 18.3899 30.0002 17.2853 30.0002H12.7139C11.6093 30.0002 10.7139 29.1048 10.7139 28.0002V11.231C10.7139 10.1264 11.6093 9.23096 12.7139 9.23096H17.2853C18.3899 9.23096 19.2853 10.1264 19.2853 11.231V28.0002ZM12.8567 25.6925C12.8567 26.7971 13.7522 27.6925 14.8567 27.6925H15.1424C16.247 27.6925 17.1424 26.7971 17.1424 25.6925V13.5387C17.1424 12.4341 16.247 11.5386 15.1424 11.5386H14.8567C13.7522 11.5386 12.8567 12.4341 12.8567 13.5386V25.6925Z" fill="#00AEEF"/>
<path d="M8.57143 28C8.57143 29.1045 7.676 30 6.57143 30H2C0.89543 30 0 29.1045 0 28V18.1538C0 17.0492 0.89543 16.1538 2 16.1538H6.57143C7.676 16.1538 8.57143 17.0492 8.57143 18.1538V28ZM2.14286 25.6923C2.14286 26.7968 3.03829 27.6923 4.14286 27.6923H4.42857C5.53314 27.6923 6.42857 26.7968 6.42857 25.6923V20.4615C6.42857 19.3569 5.53314 18.4615 4.42857 18.4615H4.14286C3.03829 18.4615 2.14286 19.3569 2.14286 20.4615V25.6923Z" fill="#00AEEF"/>
</svg>
