<svg width="30" height="25" viewBox="0 0 30 25" fill="none" xmlns="http://www.w3.org/2000/svg">
<g clip-path="url(#clip0)">
<path d="M21.5609 24.7913C20.5925 24.7913 19.6323 24.6501 18.6934 24.3689C14.5569 23.1303 10.7174 21.1129 7.58984 18.5347C4.46223 15.9566 2.01487 12.7916 0.512297 9.38184C0.0294459 8.28605 -0.113048 7.1549 0.0889161 6.0197C0.278108 4.95636 0.777775 3.92408 1.53395 3.03443C2.29347 2.14086 3.30605 1.39765 4.46217 0.885154C5.69505 0.338659 7.04072 0.0615234 8.46191 0.0615234C8.90393 0.0615234 9.28594 0.316104 9.37857 0.672352L10.85 6.33286C10.9167 6.58918 10.8211 6.85588 10.5963 7.04125L8.08195 9.11383C10.4538 13.0012 14.3026 16.1738 19.0184 18.129L21.5326 16.0564C21.7575 15.871 22.0811 15.7924 22.392 15.8472L29.2589 17.0602C29.6911 17.1365 29.9999 17.4514 29.9999 17.8158C29.9999 18.9873 29.6637 20.0966 29.0006 21.1129C28.3789 22.0659 27.4773 22.9006 26.3933 23.5267C25.3141 24.1501 24.0619 24.5619 22.7719 24.7179C22.3676 24.7668 21.9635 24.7912 21.5609 24.7913ZM7.71288 1.64088C5.83825 1.81147 4.17437 2.62143 3.06946 3.92138C1.82697 5.38312 1.53724 7.18103 2.27455 8.85418C5.16334 15.4095 11.3811 20.535 19.3335 22.9163C21.3631 23.5241 23.5443 23.2853 25.3175 22.261C26.8945 21.3502 27.8771 19.9786 28.084 18.4333L22.4979 17.4466L19.8721 19.6111C19.5926 19.8415 19.1681 19.9027 18.8106 19.7641C13.2332 17.6042 8.71866 13.8828 6.09845 9.28524C5.93047 8.99048 6.00465 8.64051 6.28407 8.41022L8.9099 6.24568L7.71288 1.64088Z" fill="#00AEEF"/>
<path d="M29.0619 13.1987C28.5442 13.1987 28.1244 12.8526 28.1244 12.4259C28.1244 6.46037 22.2368 1.60707 15 1.60707C14.4822 1.60707 14.0625 1.26106 14.0625 0.834296C14.0625 0.407532 14.4822 0.0615234 15 0.0615234C19.0065 0.0615234 22.7732 1.34761 25.6062 3.68293C28.4392 6.01825 29.9993 9.1232 29.9993 12.4259C29.9993 12.8526 29.5797 13.1987 29.0619 13.1987Z" fill="#00AEEF"/>
<path d="M25.312 13.1989C24.7943 13.1989 24.3746 12.8529 24.3746 12.4261C24.3746 8.16503 20.1691 4.69838 15 4.69838C14.4822 4.69838 14.0625 4.35237 14.0625 3.9256C14.0625 3.49884 14.4822 3.15283 15 3.15283C21.203 3.15283 26.2495 7.31281 26.2495 12.4261C26.2495 12.8529 25.8298 13.1989 25.312 13.1989Z" fill="#00AEEF"/>
<path d="M21.5622 13.1986C21.0445 13.1986 20.6247 12.8526 20.6247 12.4258C20.6247 9.86916 18.1015 7.7892 15 7.7892C14.4822 7.7892 14.0625 7.44319 14.0625 7.01642C14.0625 6.58966 14.4822 6.24365 15 6.24365C19.1353 6.24365 22.4997 9.01694 22.4997 12.4258C22.4997 12.8526 22.08 13.1986 21.5622 13.1986Z" fill="#00AEEF"/>
</g>
<defs>
<clipPath id="clip0">
<rect width="30" height="24.7297" fill="white" transform="translate(0 0.0615234)"/>
</clipPath>
</defs>
</svg>
